<?xml version="1.0" encoding="UTF-8" standalone="no"?>
<svg
   xmlns:dc="http://purl.org/dc/elements/1.1/"
   xmlns:cc="http://creativecommons.org/ns#"
   xmlns:rdf="http://www.w3.org/1999/02/22-rdf-syntax-ns#"
   xmlns:svg="http://www.w3.org/2000/svg"
   xmlns="http://www.w3.org/2000/svg"
   xmlns:sodipodi="http://sodipodi.sourceforge.net/DTD/sodipodi-0.dtd"
   xmlns:inkscape="http://www.inkscape.org/namespaces/inkscape"
   id="svg"
   version="1.1"
   width="400"
   height="402.15053763440864"
   viewBox="0, 0, 400,402.15053763440864"
   inkscape:version="0.91 r13725"
   sodipodi:docname="plateUp.svg">
  <metadata
     id="metadata3344">
    <rdf:RDF>
      <cc:Work
         rdf:about="">
        <dc:format>image/svg+xml</dc:format>
        <dc:type
           rdf:resource="http://purl.org/dc/dcmitype/StillImage" />
      </cc:Work>
    </rdf:RDF>
  </metadata>
  <defs
     id="defs3342" />
  <sodipodi:namedview
     pagecolor="#ffffff"
     bordercolor="#666666"
     borderopacity="1"
     objecttolerance="10"
     gridtolerance="10"
     guidetolerance="10"
     inkscape:pageopacity="0"
     inkscape:pageshadow="2"
     inkscape:window-width="1366"
     inkscape:window-height="715"
     id="namedview3340"
     showgrid="false"
     inkscape:zoom="1.3427807"
     inkscape:cx="200"
     inkscape:cy="201.07527"
     inkscape:window-x="-8"
     inkscape:window-y="-8"
     inkscape:window-maximized="1"
     inkscape:current-layer="svg" />
  <path
     style="fill:#191819;fill-rule:evenodd;stroke:none"
     inkscape:connector-curvature="0"
     d="m 187.4,25.402 c -6.032,0.302 -11.492,0.778 -13,1.133 -1.43,0.336 -4.4,0.82 -6.6,1.075 -2.2,0.255 -4.99,0.801 -6.2,1.213 -1.21,0.412 -3.37,1.005 -4.8,1.318 -4.81,1.053 -10.211,2.541 -11.41,3.144 -0.655,0.329 -2.088,0.818 -3.185,1.086 -1.097,0.269 -2.177,0.631 -2.4,0.806 -0.223,0.176 -1.125,0.545 -2.005,0.821 -2.148,0.674 -8.646,3.132 -9.418,3.562 -0.339,0.189 -3.467,1.646 -6.949,3.238 -3.483,1.591 -6.935,3.278 -7.672,3.748 -2.245,1.432 -3.848,2.42 -8.193,5.05 -2.292,1.388 -4.495,2.805 -4.895,3.15 -0.4,0.345 -1.328,0.993 -2.062,1.441 -0.734,0.447 -3.827,2.695 -6.873,4.995 -4.976,3.758 -7.608,6.016 -12.144,10.418 -0.793,0.77 -2.062,1.944 -2.818,2.61 -0.757,0.665 -3.536,3.543 -6.176,6.395 -2.64,2.852 -5.534,5.907 -6.43,6.79 -0.897,0.883 -3.964,4.755 -6.817,8.605 -6.934,9.359 -6.128,8.155 -10.553,15.761 -0.99,1.702 -2.39,4.027 -3.111,5.166 -0.721,1.14 -1.686,2.883 -2.145,3.873 -0.459,0.99 -1.695,3.6 -2.748,5.8 -3.647,7.626 -5.125,11.166 -6.928,16.6 -0.328,0.99 -1.31,3.826 -2.182,6.301 -0.871,2.476 -1.702,5.266 -1.846,6.2 -0.144,0.935 -0.599,2.779 -1.01,4.099 -1.347,4.325 -2.823,11.521 -3.241,15.8 -0.225,2.31 -0.718,5.55 -1.095,7.2 -1.025,4.485 -1.033,37.608 -0.01,41.808 0.376,1.544 0.875,4.839 1.109,7.32 0.395,4.19 1.511,9.581 3.079,14.872 0.359,1.21 0.968,3.64 1.354,5.4 0.785,3.575 2.053,7.587 3.161,10 0.404,0.88 0.864,2.23 1.023,3 0.342,1.658 1.882,5.796 3.201,8.6 4.239,9.01 5.124,10.922 5.456,11.786 0.208,0.543 1.389,2.703 2.624,4.8 1.235,2.098 3.196,5.434 4.357,7.414 2.305,3.931 5.026,7.933 7.614,11.199 0.914,1.153 2.122,2.795 2.685,3.648 2.186,3.315 6.775,8.787 12.829,15.299 2.417,2.6 14.498,13.537 17.665,15.993 6.458,5.007 13.597,10.107 16.858,12.041 1.926,1.142 5.391,3.228 7.701,4.635 2.31,1.408 4.39,2.566 4.621,2.572 0.232,0.007 1.312,0.446 2.4,0.976 1.089,0.53 3.059,1.448 4.379,2.04 1.32,0.592 3.724,1.689 5.342,2.437 1.617,0.748 3.15,1.36 3.405,1.36 0.256,0 1.092,0.335 1.859,0.745 0.767,0.409 2.474,1.056 3.794,1.437 1.32,0.382 2.58,0.832 2.8,1.001 0.615,0.473 8.948,3.1 11.2,3.531 1.1,0.211 2.9,0.749 4,1.197 1.1,0.447 3.219,1.28 4.708,1.851 l 2.708,1.038 35.184,0 35.184,0 2.708,-1.041 c 1.489,-0.573 3.643,-1.466 4.785,-1.984 1.142,-0.519 3.287,-1.154 4.766,-1.412 1.479,-0.257 4.594,-1.177 6.923,-2.044 2.329,-0.867 5.224,-1.91 6.434,-2.316 2.294,-0.771 6.19,-2.329 9.1,-3.638 0.935,-0.421 2.465,-1.108 3.4,-1.527 0.935,-0.419 3.05,-1.386 4.7,-2.148 1.65,-0.763 3.357,-1.51 3.793,-1.661 0.436,-0.151 3.365,-1.84 6.51,-3.752 3.144,-1.912 6.49,-3.927 7.434,-4.477 2.116,-1.232 6.651,-4.44 9.063,-6.412 0.99,-0.809 2.163,-1.661 2.607,-1.894 6.171,-3.233 26.19,-23.074 33.719,-33.419 1.25,-1.719 2.845,-3.879 3.542,-4.8 2.439,-3.22 4.913,-6.977 7.557,-11.475 0.84,-1.43 2.293,-3.86 3.228,-5.4 2.541,-4.184 10.034,-19.787 10.583,-22.037 0.264,-1.08 0.665,-2.323 0.893,-2.763 0.646,-1.25 2.665,-6.986 3.239,-9.2 0.284,-1.1 0.895,-3.26 1.357,-4.8 2.105,-7.022 4.262,-17.301 5.287,-25.2 1.777,-13.688 1.224,-43.333 -1.007,-54 -0.323,-1.54 -0.778,-4.06 -1.012,-5.6 -0.235,-1.54 -0.777,-3.97 -1.206,-5.4 -0.429,-1.43 -1.145,-4.04 -1.591,-5.8 -1.571,-6.195 -2.335,-8.54 -5.348,-16.4 -0.337,-0.88 -0.621,-1.858 -0.63,-2.174 -0.01,-0.315 -0.4,-1.395 -0.868,-2.4 -2.817,-6.056 -3.894,-8.317 -6.016,-12.626 -1.3,-2.64 -2.988,-5.79 -3.75,-7 -0.763,-1.21 -1.756,-2.92 -2.207,-3.8 -0.451,-0.88 -1.344,-2.41 -1.985,-3.4 -0.641,-0.99 -1.531,-2.468 -1.979,-3.285 -0.448,-0.817 -1.581,-2.437 -2.518,-3.6 -0.937,-1.163 -2.043,-2.655 -2.457,-3.315 -2.774,-4.423 -13.194,-16.469 -20.066,-23.2 -3.937,-3.855 -11.008,-10.37 -11.668,-10.749 -0.333,-0.191 -3.148,-2.267 -6.255,-4.611 -5.084,-3.838 -7.887,-5.75 -13.777,-9.4 -1.03,-0.638 -2.502,-1.551 -3.272,-2.03 -3.862,-2.399 -5.814,-3.46 -8.865,-4.817 -1.834,-0.816 -4.775,-2.175 -6.535,-3.02 -1.76,-0.844 -4.19,-1.921 -5.4,-2.392 -4.686,-1.823 -8.7,-3.265 -11.037,-3.965 -1.341,-0.402 -2.961,-0.996 -3.6,-1.32 -0.64,-0.324 -1.883,-0.712 -2.763,-0.862 -0.88,-0.15 -2.68,-0.613 -4,-1.028 -1.32,-0.415 -3.48,-0.964 -4.8,-1.22 -1.32,-0.256 -3.39,-0.79 -4.6,-1.187 -1.21,-0.396 -4.022,-0.915 -6.249,-1.153 -2.227,-0.237 -5.197,-0.705 -6.6,-1.04 -1.432,-0.342 -6.234,-0.778 -10.951,-0.994 -4.62,-0.213 -10.02,-0.464 -12,-0.559 -1.98,-0.095 -8.28,0.062 -14,0.349 m 22.8,10.99 c 4.62,0.199 9.93,0.647 11.8,0.994 1.87,0.348 5.38,0.897 7.8,1.221 2.42,0.324 5.12,0.853 6,1.176 0.88,0.322 3.22,0.95 5.2,1.396 4.913,1.105 9.741,2.511 13.8,4.02 1.87,0.694 4.417,1.587 5.66,1.983 1.243,0.396 4.033,1.571 6.2,2.61 7.192,3.45 14.332,7.074 14.94,7.584 0.33,0.276 0.87,0.618 1.2,0.759 0.33,0.142 1.77,0.971 3.2,1.844 1.43,0.873 3.32,1.981 4.2,2.463 1.523,0.833 5.599,3.732 12.92,9.189 5.179,3.86 16.08,14.419 22.552,21.844 4.017,4.608 13.829,17.361 14.226,18.49 0.123,0.349 0.448,0.905 0.722,1.235 0.274,0.33 0.852,1.23 1.284,2 0.432,0.77 1.738,3.02 2.901,5 1.987,3.381 5.173,9.601 8.195,16 1.361,2.882 3.24,7.679 4.385,11.2 0.358,1.1 1.363,4.128 2.233,6.729 0.87,2.601 1.582,5.037 1.582,5.413 0,0.376 0.272,1.668 0.605,2.871 1.149,4.15 3.334,14.594 3.596,17.187 0.144,1.43 0.552,4.67 0.906,7.2 0.471,3.364 0.648,7.825 0.661,16.6 0.017,11.872 -0.063,13.043 -1.767,26 -0.512,3.895 -2.267,12.271 -3.212,15.331 -0.434,1.404 -0.795,3.029 -0.802,3.611 -0.007,0.582 -0.376,2.048 -0.818,3.258 -0.443,1.21 -1.062,3.01 -1.376,4 -3.168,9.998 -3.701,11.323 -8.539,21.223 -1.35,2.762 -2.454,5.129 -2.454,5.26 0,0.13 -0.722,1.38 -1.605,2.777 -0.883,1.397 -1.964,3.26 -2.404,4.14 -0.44,0.88 -1.332,2.41 -1.982,3.4 -0.651,0.99 -1.64,2.61 -2.199,3.6 -0.559,0.99 -2.376,3.51 -4.038,5.6 -1.663,2.09 -3.554,4.52 -4.205,5.4 -1.251,1.694 -4.422,5.42 -5.774,6.785 -0.443,0.448 -2.361,2.619 -4.262,4.823 -4.374,5.075 -8.822,9.344 -15.006,14.404 -6.348,5.194 -15.193,11.624 -18.412,13.387 -0.832,0.455 -2.323,1.356 -3.313,2.002 -0.99,0.645 -2.61,1.631 -3.6,2.19 -0.99,0.559 -2.07,1.192 -2.4,1.407 -0.33,0.215 -2.76,1.384 -5.4,2.598 -2.64,1.213 -5.494,2.582 -6.341,3.041 -0.848,0.459 -2.468,1.17 -3.6,1.58 -1.133,0.41 -3.319,1.216 -4.859,1.792 -5.948,2.225 -9.714,3.468 -12.6,4.158 -1.65,0.395 -3.9,1.006 -5,1.359 -3.919,1.255 -9.694,2.374 -16,3.099 -3.52,0.405 -7.415,0.931 -8.655,1.168 -6.094,1.165 -26.992,1.068 -34.223,-0.158 -1.937,-0.329 -6.207,-0.886 -9.489,-1.238 -3.282,-0.352 -6.262,-0.799 -6.624,-0.992 -0.361,-0.193 -2.213,-0.623 -4.116,-0.955 -1.903,-0.332 -3.813,-0.793 -4.246,-1.025 -0.432,-0.231 -1.744,-0.62 -2.916,-0.863 -2.38,-0.496 -9.169,-2.696 -11.931,-3.868 -0.99,-0.42 -3.15,-1.262 -4.8,-1.871 -5.615,-2.072 -18.447,-8.335 -22.5,-10.982 -1.704,-1.113 -3.774,-2.395 -4.6,-2.849 -0.825,-0.453 -2.13,-1.261 -2.9,-1.796 -0.77,-0.534 -1.994,-1.382 -2.721,-1.884 -0.726,-0.501 -2.706,-1.937 -4.4,-3.19 -1.693,-1.253 -3.886,-2.873 -4.871,-3.6 -6.116,-4.511 -14.013,-12.075 -20.655,-19.785 -2.684,-3.115 -5.211,-5.996 -5.616,-6.402 -0.693,-0.695 -6.028,-7.581 -7.337,-9.469 -0.33,-0.476 -1.202,-1.676 -1.937,-2.666 -0.736,-0.99 -1.776,-2.61 -2.313,-3.6 -0.537,-0.99 -1.496,-2.61 -2.133,-3.6 -1.635,-2.544 -6.417,-11.098 -6.418,-11.481 -10e-4,-0.175 -0.826,-1.939 -1.834,-3.919 -2.155,-4.232 -3.994,-8.482 -4.761,-11 -0.301,-0.99 -1.338,-4.14 -2.304,-7 -1.953,-5.78 -2.797,-8.769 -3.898,-13.8 -0.409,-1.87 -0.942,-3.919 -1.184,-4.554 -0.242,-0.635 -0.713,-3.515 -1.047,-6.4 -0.335,-2.885 -0.915,-6.326 -1.29,-7.646 -1.032,-3.636 -1.02,-36.634 0.015,-40.8 0.382,-1.54 0.974,-5.011 1.315,-7.713 0.34,-2.703 0.805,-5.403 1.033,-6 0.228,-0.598 0.75,-2.617 1.16,-4.487 1.001,-4.559 1.937,-8.219 2.66,-10.4 0.328,-0.99 0.939,-2.88 1.357,-4.2 2.284,-7.213 3.9,-11.298 6.965,-17.6 1.177,-2.42 2.247,-4.67 2.378,-5 0.13,-0.33 0.857,-1.68 1.615,-3 0.758,-1.32 1.75,-3.12 2.204,-4 0.454,-0.88 1.358,-2.41 2.008,-3.4 0.651,-0.99 1.627,-2.626 2.17,-3.635 0.543,-1.009 1.613,-2.655 2.378,-3.658 0.765,-1.002 1.632,-2.259 1.926,-2.792 2.563,-4.647 14.689,-18.351 24.609,-27.811 6.176,-5.89 7.873,-7.329 11.888,-10.082 1.078,-0.74 2.268,-1.632 2.642,-1.984 1.336,-1.253 8.828,-6.131 11.596,-7.551 0.55,-0.282 1.99,-1.126 3.2,-1.875 3.341,-2.069 19.926,-10.258 21.986,-10.856 0.998,-0.29 3.614,-1.179 5.814,-1.976 4.19,-1.517 9.013,-2.963 13.4,-4.017 1.43,-0.343 3.77,-0.984 5.2,-1.424 1.43,-0.44 4.22,-0.977 6.2,-1.192 1.98,-0.216 4.23,-0.554 5,-0.752 3.208,-0.824 7.398,-1.294 14,-1.572 10.22,-0.43 12.895,-0.434 22.2,-0.031 M 194,48 c -1.151,1.151 -1.036,2.957 0.254,3.971 1.414,1.113 2.385,1.044 3.588,-0.254 C 200.216,49.156 196.469,45.531 194,48 m 13.996,0.9 c -0.998,1.635 -1.001,1.595 0.24,3.069 2.21,2.627 6.096,0.129 4.504,-2.895 -1.063,-2.019 -3.563,-2.111 -4.744,-0.174 m -27.508,-0.172 c -2.328,1.116 -2.275,4.084 0.087,4.864 1.113,0.367 1.603,0.336 2.567,-0.162 3.316,-1.715 0.717,-6.318 -2.654,-4.702 m 42.432,0.951 c -1.037,0.501 -1.548,2.348 -0.955,3.455 1.436,2.684 6.207,1.026 5.217,-1.813 -0.628,-1.801 -2.466,-2.509 -4.262,-1.642 m -57.231,1.744 c -1.98,1.386 -0.715,4.577 1.814,4.577 1.6,0 2.497,-0.922 2.497,-2.567 0,-2.319 -2.323,-3.403 -4.311,-2.01 m 70.934,1.866 c -1.697,2.422 0.567,5.573 3.156,4.393 2.523,-1.149 1.623,-5.282 -1.15,-5.282 -0.976,0 -1.567,0.262 -2.006,0.889 m -84.531,1.379 c -1.031,0.415 -1.68,2.304 -1.153,3.36 1.143,2.293 3.835,2.278 5.198,-0.028 1.199,-2.032 -1.582,-4.323 -4.045,-3.332 m 98.562,2.561 c -2.026,1.594 -0.873,4.771 1.73,4.771 2.513,0 3.585,-2.654 1.835,-4.542 -1.181,-1.274 -2.157,-1.336 -3.565,-0.229 m -111.728,2.374 c -2.089,0.842 -2.029,4.297 0.085,4.865 3.1,0.833 5.123,-2.275 2.863,-4.398 -0.991,-0.932 -1.568,-1.023 -2.948,-0.467 m 125.485,2.846 c -2.016,0.797 -2.249,3.042 -0.449,4.324 1.458,1.038 2.062,1.038 3.384,-0.002 2.424,-1.906 -0.003,-5.481 -2.935,-4.322 m -138.699,3.559 c -2.31,0.93 -1.361,4.503 1.253,4.719 1.776,0.147 2.109,-0.093 2.624,-1.89 0.641,-2.235 -1.489,-3.79 -3.877,-2.829 m 150.823,3.383 c -2.721,1.906 0.106,6.58 2.88,4.762 1.997,-1.308 2.196,-2.403 0.749,-4.122 -1.133,-1.348 -2.321,-1.557 -3.629,-0.64 m -163.244,3.886 c -1.892,0.944 -1.7,3.391 0.353,4.494 l 1.434,0.77 1.261,-0.898 c 2.989,-2.128 0.271,-6.022 -3.048,-4.366 m 174.938,4.552 c -1.607,1.606 -0.24,4.171 2.222,4.171 1.73,0 2.349,-0.594 2.349,-2.251 0,-1.659 -0.908,-2.549 -2.6,-2.549 -0.739,0 -1.626,0.283 -1.971,0.629 M 101.255,82.3 c -0.764,1.433 -0.694,3.004 0.174,3.871 2.376,2.376 5.808,-1.425 3.676,-4.071 -0.627,-0.778 -3.406,-0.634 -3.85,0.2 m 198.168,4.589 c -2.007,2.864 1.606,6.232 3.96,3.692 1.223,-1.32 1.242,-1.606 0.221,-3.281 -0.999,-1.639 -3.172,-1.853 -4.181,-0.411 M 91.607,91.314 c -1.275,0.645 -1.887,2.327 -1.377,3.786 0.539,1.541 3.359,1.823 4.332,0.432 1.77,-2.526 -0.342,-5.54 -2.955,-4.218 M 309.68,96.88 c -0.845,0.845 -0.59,3.398 0.409,4.097 2.673,1.872 5.979,-1.744 3.58,-3.915 -0.851,-0.769 -3.29,-0.881 -3.989,-0.182 M 180.8,97.992 c -5.75,0.406 -7.696,1.959 -6.742,5.38 0.412,1.475 0.772,1.69 3.375,2.015 2.942,0.367 2.824,-0.106 3.348,13.413 0.991,25.601 1.119,26.603 3.614,28.3 1.661,1.129 2.344,1.129 4.046,-0.005 3,-1.999 2.995,-1.945 2.011,-20.055 -0.48,-8.822 -0.868,-17.171 -0.862,-18.554 l 0.01,-2.514 1.703,-0.73 c 4.729,-2.028 5.739,-5.086 2.264,-6.859 -1.656,-0.845 -4.929,-0.945 -12.767,-0.391 m 24.093,0.869 c -1.883,0.971 -2.474,2.697 -3.084,8.999 -0.316,3.267 -0.794,7.74 -1.063,9.94 -0.268,2.2 -0.501,8.592 -0.517,14.205 l -0.029,10.205 1.499,2.261 c 0.825,1.244 1.725,2.342 2,2.441 0.907,0.323 0.045,0.709 -2.499,1.119 -1.379,0.222 -3.039,0.679 -3.689,1.015 -0.65,0.336 -2.381,1.026 -3.847,1.534 -1.465,0.507 -4.194,1.492 -6.064,2.187 -1.87,0.696 -4.03,1.458 -4.8,1.694 -0.77,0.236 -2.12,0.795 -3,1.243 -0.88,0.448 -2.5,1.04 -3.6,1.315 -1.1,0.276 -3.71,1.218 -5.8,2.093 -2.09,0.876 -4.43,1.721 -5.2,1.879 -0.77,0.157 -1.995,0.629 -2.723,1.048 -0.727,0.418 -2.167,0.967 -3.2,1.219 -1.032,0.253 -2.397,0.72 -3.032,1.039 -1.15,0.578 -3.588,1.474 -7.93,2.914 -1.257,0.417 -2.967,1.103 -3.8,1.524 -0.833,0.422 -2.137,0.902 -2.897,1.066 -0.759,0.164 -3.596,1.176 -6.304,2.249 -2.708,1.072 -5.153,1.95 -5.434,1.95 -0.281,0 -1.224,0.375 -2.095,0.832 -0.872,0.458 -2.665,1.163 -3.985,1.567 -2.001,0.613 -10.236,3.645 -15.8,5.819 -0.77,0.301 -1.671,0.555 -2.003,0.564 -0.769,0.023 -4.502,1.988 -4.891,2.574 -0.162,0.244 -0.297,22.589 -0.3,49.655 -0.006,52.911 -0.08,50.965 1.917,51.002 0.372,0.006 1.752,0.546 3.067,1.2 1.314,0.653 2.581,1.187 2.815,1.187 0.234,0 1.948,0.655 3.81,1.455 1.862,0.801 4.465,1.809 5.785,2.241 1.32,0.431 3.3,1.191 4.4,1.689 1.1,0.497 3.35,1.396 5,1.997 1.65,0.601 3.949,1.525 5.109,2.055 1.16,0.53 2.315,0.963 2.568,0.963 0.253,0 1.644,0.521 3.091,1.157 1.448,0.637 4.162,1.723 6.032,2.413 1.87,0.691 3.85,1.502 4.4,1.803 0.55,0.301 1.81,0.748 2.8,0.994 0.99,0.245 2.52,0.801 3.4,1.234 0.88,0.434 3.31,1.424 5.4,2.201 2.09,0.776 4.57,1.769 5.511,2.205 0.941,0.436 1.908,0.793 2.15,0.793 0.241,0 1.451,0.442 2.689,0.983 1.237,0.541 3.96,1.633 6.05,2.428 2.09,0.795 4.532,1.793 5.426,2.217 0.895,0.425 1.87,0.772 2.168,0.772 0.298,0 1.727,0.517 3.174,1.149 7.854,3.43 11.514,4.233 15.032,3.297 2.458,-0.654 7.859,-2.593 9.2,-3.304 0.66,-0.349 1.912,-0.764 2.781,-0.922 0.87,-0.158 2.289,-0.647 3.153,-1.088 0.864,-0.441 2.313,-1.042 3.219,-1.335 0.906,-0.293 3.177,-1.1 5.047,-1.794 1.87,-0.694 4.21,-1.536 5.2,-1.87 0.99,-0.334 2.813,-1.041 4.05,-1.57 1.238,-0.53 2.408,-0.966 2.6,-0.969 0.193,-0.004 2.24,-0.745 4.55,-1.648 2.31,-0.902 5.01,-1.903 6,-2.224 0.99,-0.321 2.52,-0.857 3.4,-1.192 0.88,-0.335 2.77,-1.056 4.2,-1.602 1.43,-0.546 3.77,-1.411 5.2,-1.921 1.43,-0.51 4.04,-1.466 5.8,-2.124 6.672,-2.496 10.059,-3.725 11.8,-4.283 0.99,-0.318 2.513,-0.943 3.385,-1.389 0.871,-0.446 1.921,-0.811 2.333,-0.811 0.411,0 1.948,-0.516 3.415,-1.146 1.467,-0.631 4.077,-1.65 5.801,-2.266 4.983,-1.781 4.466,4.164 4.466,-51.37 0,-26.52 -0.136,-48.704 -0.302,-49.297 -0.333,-1.186 -7.421,-4.926 -10.898,-5.75 -0.66,-0.156 -1.936,-0.709 -2.835,-1.228 -0.899,-0.518 -1.867,-0.943 -2.15,-0.943 -0.528,0 -3.868,-1.362 -7.415,-3.025 -1.1,-0.515 -2.54,-1.061 -3.2,-1.213 -0.66,-0.151 -1.936,-0.7 -2.835,-1.219 -0.899,-0.518 -1.859,-0.943 -2.133,-0.943 -0.518,0 -5.188,-1.945 -7.648,-3.186 -0.779,-0.392 -2.039,-0.848 -2.8,-1.012 -0.761,-0.165 -2.104,-0.707 -2.984,-1.206 -0.88,-0.499 -2.32,-1.131 -3.2,-1.404 -0.88,-0.273 -1.78,-0.622 -2,-0.775 -0.22,-0.154 -1.3,-0.606 -2.4,-1.004 -1.1,-0.399 -2.202,-0.883 -2.449,-1.075 -0.246,-0.193 -1.326,-0.615 -2.4,-0.938 -1.073,-0.324 -2.837,-1.041 -3.919,-1.594 -1.082,-0.553 -2.173,-1.006 -2.424,-1.006 -0.252,0 -2.426,-0.899 -4.833,-1.997 -2.406,-1.098 -4.627,-1.998 -4.935,-2 -0.308,-0.002 -1.478,-0.447 -2.6,-0.989 -3.269,-1.58 -7.729,-3.414 -8.307,-3.415 -0.293,-0.001 -1.077,-0.334 -1.743,-0.74 -0.665,-0.405 -1.925,-0.966 -2.8,-1.246 -4.039,-1.294 -2.605,-1.999 4.081,-2.007 5.215,-0.006 5.28,-0.017 6.1,-1.06 2.122,-2.697 0.384,-4.891 -4.146,-5.233 -2.865,-0.216 -3.314,-0.367 -4.6,-1.545 l -1.425,-1.304 -0.131,-5.2 c -0.173,-6.845 -0.162,-6.864 3.958,-6.864 7.968,0 8.744,-5.529 0.88,-6.275 -3.417,-0.324 -4.266,-0.987 -3.922,-3.064 0.151,-0.913 0.514,-3.797 0.806,-6.408 0.669,-5.973 0.657,-5.96 5.645,-6.239 4.837,-0.27 6.416,-1.702 4.932,-4.474 -0.987,-1.845 -13.534,-3.294 -16.275,-1.879 M 80.87,102.526 c -2.515,2.676 0.957,6.139 3.608,3.599 1.379,-1.32 1.41,-2.097 0.141,-3.467 -1.209,-1.304 -2.602,-1.353 -3.749,-0.132 m 69.689,0.065 c -1.735,1.04 -2.268,2.047 -3.607,6.809 -0.573,2.038 -0.701,5.088 -0.851,20.2 -0.101,10.238 -0.335,17.994 -0.551,18.257 -0.595,0.723 -6.329,0.92 -7.783,0.268 -1.306,-0.585 -3.771,-5.166 -4.373,-8.125 -0.157,-0.77 -0.554,-2.03 -0.883,-2.8 -0.617,-1.445 -1.386,-4.117 -2.876,-10 -0.474,-1.87 -1.204,-4.66 -1.623,-6.2 -0.419,-1.54 -0.881,-3.751 -1.026,-4.913 -0.727,-5.808 -6.457,-8.695 -8.767,-4.417 -0.869,1.609 -0.376,8.481 0.827,11.53 0.304,0.77 0.906,2.93 1.338,4.8 3.68,15.918 8.116,25.494 12.698,27.409 3.025,1.263 8.756,0.172 12.06,-2.298 1.886,-1.409 2.26,-1.548 3.119,-1.156 1.871,0.852 3.639,0.547 5.219,-0.9 l 1.468,-1.346 0.226,-4.622 c 0.124,-2.542 0.316,-4.708 0.426,-4.813 0.63,-0.599 5.573,-2.356 7.159,-2.544 2.334,-0.276 2.415,-0.181 4.057,4.784 2.914,8.811 9.09,6.389 6.414,-2.514 -0.43,-1.43 -1.334,-4.49 -2.01,-6.8 -0.676,-2.31 -1.513,-5.01 -1.86,-6 -0.346,-0.99 -0.96,-2.88 -1.364,-4.2 -4.842,-15.843 -11.687,-23.855 -17.437,-20.409 m 102.747,3.095 c -1.173,0.565 -3.548,5.473 -4.069,8.404 -0.223,1.26 -0.668,2.796 -0.987,3.414 -0.32,0.618 -0.702,1.837 -0.85,2.71 -0.148,0.872 -0.688,3.206 -1.201,5.186 -0.513,1.98 -1.052,4.59 -1.199,5.8 -0.147,1.21 -0.522,3.709 -0.833,5.552 -1.72,10.176 0.665,18.142 5.715,19.09 5.161,0.968 10.813,-3.209 14.398,-10.642 2.227,-4.617 6.148,-16.136 6.74,-19.8 0.143,-0.88 0.7,-3.031 1.238,-4.78 1.365,-4.431 1.706,-9.154 0.74,-10.223 -2.21,-2.441 -5.187,0.089 -6.219,5.283 -0.391,1.966 -0.784,3.376 -3.211,11.52 -0.492,1.65 -1.128,3.99 -1.414,5.2 -0.598,2.529 -2.444,7.924 -3.885,11.352 -2.764,6.575 -6.897,5.906 -5.885,-0.952 1.018,-6.894 1.999,-12.05 2.769,-14.543 0.466,-1.508 0.844,-3.037 0.84,-3.399 -0.004,-0.362 0.441,-2.098 0.988,-3.858 3.406,-10.951 3.346,-10.642 2.463,-12.756 -1.149,-2.751 -3.612,-3.777 -6.138,-2.558 m 65.794,1.946 c -1.033,0.601 -0.979,3.791 0.074,4.354 1.202,0.643 3.034,0.489 3.764,-0.317 2.083,-2.302 -1.089,-5.638 -3.838,-4.037 m -246.6,5.964 c -2.478,1.51 -1.388,4.804 1.589,4.804 2.611,0 3.67,-3.262 1.549,-4.773 -1.425,-1.015 -1.524,-1.016 -3.138,-0.031 m 84.651,1.352 c 0.931,0.991 2.818,5.512 4.052,9.708 0.397,1.351 0.919,2.825 1.16,3.274 1.251,2.338 -0.451,4.056 -4.723,4.768 -2.3,0.383 -2.44,-0.152 -2.44,-9.342 0,-9.816 0.124,-10.352 1.951,-8.408 M 283.4,114.54 c -1.382,0.63 -3.623,3.576 -4.023,5.29 -0.149,0.644 -0.535,1.591 -0.856,2.105 -0.322,0.514 -0.916,1.864 -1.32,3 -2.144,6.027 -2.929,8.103 -3.198,8.465 -0.163,0.22 -0.596,1.317 -0.962,2.438 -0.365,1.121 -1.019,2.734 -1.453,3.585 -0.433,0.85 -0.788,1.805 -0.788,2.122 0,0.316 -0.428,1.493 -0.952,2.615 -2.857,6.124 -4.648,10.893 -4.648,12.375 0,1.725 1.925,4.215 3.484,4.507 3.226,0.605 5.189,-1.961 8.947,-11.699 0.879,-2.278 1.572,-2.714 4.969,-3.13 10.144,-1.241 17.874,-10.341 16.25,-19.128 -1.324,-7.158 -10.649,-14.73 -15.45,-12.545 m -188,3.326 c -5.62,1.352 -7.021,5.821 -3.802,12.13 0.441,0.865 0.808,1.804 0.815,2.088 0.006,0.284 0.546,1.591 1.2,2.906 0.653,1.314 1.187,2.61 1.187,2.879 0,0.269 0.45,1.335 1,2.369 0.55,1.035 1,2.174 1,2.533 0,0.358 0.265,1.03 0.589,1.492 0.324,0.463 1.061,2.078 1.638,3.589 0.576,1.512 1.484,3.872 2.017,5.246 0.533,1.374 1.398,3.667 1.923,5.097 2.596,7.075 6.23,9.469 9.464,6.236 1.729,-1.729 0.747,-8.24 -1.838,-12.185 -1.526,-2.329 -1.273,-4.839 0.744,-7.407 4.64,-5.906 5.949,-12.558 3.599,-18.277 -3.114,-7.573 -10.513,-10.866 -19.536,-8.696 m 232.062,1.665 c -1.484,1.64 -0.358,4.869 1.699,4.869 2.154,0 3.251,-2.311 2.041,-4.301 -0.919,-1.511 -2.649,-1.773 -3.74,-0.568 m -36.33,4.862 c 3.808,5.151 -0.73,15.207 -6.863,15.207 -2.648,0 -2.593,-0.565 0.766,-7.909 0.531,-1.16 0.965,-2.33 0.965,-2.6 10e-4,-0.729 2.385,-5.634 2.891,-5.947 0.646,-0.399 1.285,-0.043 2.241,1.249 M 105.04,124.348 c 3.775,2.78 4.56,4.297 4.56,8.818 0,3.805 -0.537,5.478 -2.003,6.236 -1.598,0.826 -1.753,0.607 -4.058,-5.746 -0.428,-1.179 -1.016,-2.529 -1.306,-3 -3.493,-5.669 -1.725,-9.644 2.807,-6.308 m -40.862,2.095 c -1.054,2.038 0.037,4.357 2.051,4.357 1.393,0 2.571,-1.346 2.571,-2.938 0,-2.742 -3.399,-3.785 -4.622,-1.419 M 334.4,132 c -2.267,2.267 0.826,6.353 3.322,4.39 1.378,-1.084 1.644,-2.109 0.913,-3.522 -0.956,-1.85 -2.862,-2.241 -4.235,-0.868 m -276.402,7.094 c -1.565,1.988 -0.108,5.046 2.194,4.605 1.996,-0.381 2.857,-2.994 1.585,-4.81 -0.895,-1.278 -2.69,-1.18 -3.779,0.205 m 282.225,6.195 c -1.273,1.816 -0.428,4.372 1.615,4.885 2.611,0.655 3.947,-3.902 1.602,-5.468 -0.911,-0.608 -2.597,-0.303 -3.217,0.583 m -287.424,7.112 c -2.027,1.893 -1.123,4.399 1.588,4.399 2.779,0 3.922,-2.617 1.949,-4.46 -1.534,-1.433 -1.946,-1.426 -3.537,0.061 m 150.97,0.208 c 1.285,0.335 2.808,0.867 3.384,1.182 1.118,0.612 4.966,2.194 8.247,3.388 1.1,0.401 3.38,1.362 5.066,2.137 1.686,0.774 4.048,1.693 5.248,2.042 1.2,0.349 2.39,0.886 2.646,1.194 0.255,0.307 1.314,0.771 2.352,1.03 1.038,0.258 2.248,0.701 2.688,0.983 0.44,0.283 1.52,0.749 2.4,1.036 0.88,0.287 2.23,0.838 3,1.225 2.497,1.253 7.121,3.174 7.641,3.174 0.278,0 1.238,0.342 2.133,0.76 3.17,1.48 10.539,4.532 13.626,5.642 1.1,0.396 3.08,1.205 4.4,1.798 3.78,1.697 4.73,2.091 5.8,2.401 0.55,0.16 1.63,0.62 2.4,1.022 1.514,0.792 9.273,3.982 12.736,5.237 3.944,1.429 6.341,3.024 6.616,4.401 0.137,0.682 0.248,21.565 0.248,46.409 0,50.93 0.257,46.982 -3.131,48.107 -1.07,0.355 -2.641,1.001 -3.492,1.435 -0.85,0.433 -1.769,0.788 -2.041,0.788 -0.272,0 -3.017,0.99 -6.101,2.2 -3.083,1.21 -5.903,2.2 -6.266,2.2 -0.363,0 -1.315,0.35 -2.115,0.778 -0.799,0.428 -3.434,1.443 -5.854,2.255 -2.42,0.811 -5.03,1.784 -5.8,2.162 -0.77,0.378 -2.272,0.9 -3.337,1.161 -1.066,0.261 -2.326,0.723 -2.8,1.028 -0.475,0.304 -1.873,0.843 -3.108,1.197 -1.234,0.354 -3.754,1.285 -5.6,2.068 -1.845,0.783 -4.345,1.695 -5.555,2.025 -1.21,0.331 -2.65,0.855 -3.2,1.165 -0.55,0.31 -2.08,0.91 -3.4,1.334 -1.32,0.424 -3.66,1.252 -5.2,1.841 -1.54,0.589 -3.61,1.335 -4.6,1.658 -0.99,0.324 -2.79,1.016 -4,1.539 -1.21,0.523 -2.65,1.066 -3.2,1.206 -1.091,0.279 -5.147,1.78 -8,2.961 -5.05,2.092 -8.708,2.975 -9.681,2.337 -0.512,-0.336 -1.558,-0.739 -2.325,-0.897 -0.767,-0.159 -2.114,-0.617 -2.994,-1.019 -0.88,-0.403 -3.04,-1.297 -4.8,-1.987 -1.76,-0.69 -4.1,-1.626 -5.2,-2.082 -1.1,-0.455 -2.9,-1.154 -4,-1.553 -1.1,-0.399 -3.44,-1.296 -5.2,-1.994 -1.76,-0.697 -4.114,-1.589 -5.231,-1.982 -1.118,-0.393 -2.738,-1.072 -3.6,-1.509 -0.863,-0.437 -2.192,-0.929 -2.953,-1.093 -0.762,-0.165 -1.842,-0.628 -2.4,-1.03 -0.559,-0.401 -2.908,-1.343 -5.22,-2.092 -2.312,-0.749 -4.922,-1.723 -5.8,-2.163 -0.878,-0.44 -2.136,-0.929 -2.796,-1.085 -0.66,-0.156 -1.92,-0.61 -2.8,-1.008 -0.88,-0.398 -3.13,-1.3 -5,-2.006 -1.87,-0.705 -4.39,-1.703 -5.6,-2.218 -1.21,-0.515 -3.01,-1.201 -4,-1.525 -2.041,-0.666 -8.896,-3.403 -12.832,-5.122 -1.447,-0.633 -2.89,-1.15 -3.206,-1.15 -0.316,0 -1.201,-0.334 -1.968,-0.741 -0.767,-0.408 -2.072,-0.963 -2.901,-1.233 -2.876,-0.94 -2.693,2.387 -2.693,-48.936 l 0,-46.151 0.9,-0.789 c 1.016,-0.891 3.119,-1.746 14.7,-5.972 6.207,-2.265 8.32,-3.058 10.2,-3.831 1.1,-0.452 2.99,-1.089 4.2,-1.415 1.21,-0.326 2.624,-0.866 3.143,-1.2 0.518,-0.333 2.048,-0.931 3.4,-1.329 1.351,-0.397 3.897,-1.299 5.657,-2.004 1.76,-0.705 4.46,-1.644 6,-2.085 1.54,-0.442 2.999,-0.964 3.243,-1.16 0.244,-0.197 1.414,-0.701 2.6,-1.121 1.186,-0.42 3.417,-1.245 4.957,-1.834 1.54,-0.589 4.06,-1.488 5.6,-1.998 1.54,-0.51 3.513,-1.304 4.385,-1.764 0.871,-0.46 1.892,-0.837 2.269,-0.837 0.613,0 3.401,-1.007 8.746,-3.158 0.99,-0.399 2.7,-1.039 3.8,-1.423 1.1,-0.383 3.44,-1.231 5.2,-1.882 3.11,-1.152 7.379,-2.627 7.816,-2.701 0.119,-0.02 1.268,0.238 2.553,0.573 m 141.195,6.32 c -0.938,0.808 -1.044,1.121 -0.805,2.395 0.456,2.426 3.111,3.13 4.612,1.222 2.239,-2.846 -1.059,-5.98 -3.807,-3.617 m -295.831,6.883 c -1.697,0.921 -1.932,2.904 -0.482,4.065 1.421,1.136 2.145,1.156 3.495,0.094 2.71,-2.132 0.04,-5.817 -3.013,-4.159 M 157.6,172.38 c 0,0.649 0.246,1.324 0.546,1.5 0.3,0.176 0.847,0.86 1.215,1.52 0.368,0.66 1.209,1.92 1.868,2.8 1.323,1.768 1.957,2.663 5.139,7.265 1.193,1.724 3.359,4.755 4.814,6.735 1.455,1.98 2.956,4.05 3.335,4.6 0.38,0.55 1.318,1.81 2.086,2.8 3.147,4.058 3.699,6.4 1.508,6.4 -0.849,0 -1.448,-0.431 -2.513,-1.81 -0.769,-0.995 -2.337,-3.02 -3.485,-4.5 -3.676,-4.737 -4.926,-6.379 -9.585,-12.594 -0.621,-0.827 -2.118,-2.753 -3.328,-4.279 -1.21,-1.527 -2.74,-3.512 -3.4,-4.411 -1.555,-2.118 -3.473,-4.002 -4.076,-4.004 -1.027,-0.004 -0.959,0.938 0.18,2.531 0.656,0.917 1.668,2.387 2.249,3.267 0.581,0.88 1.42,2.05 1.864,2.6 1.695,2.097 4.812,6.496 5.377,7.588 0.324,0.627 0.728,1.201 0.898,1.276 0.169,0.075 0.848,0.927 1.508,1.895 0.66,0.967 1.606,2.317 2.101,3 0.496,0.682 1.344,1.871 1.885,2.641 0.541,0.77 2.161,3.019 3.599,4.997 2.523,3.471 3.225,5.379 2.211,6.005 -1.174,0.726 -2.049,-0.165 -10.293,-10.485 -1.267,-1.585 -2.753,-3.418 -3.303,-4.073 -0.55,-0.655 -1.99,-2.484 -3.2,-4.065 -1.21,-1.58 -3.55,-4.517 -5.201,-6.526 -1.65,-2.009 -3.319,-4.148 -3.709,-4.753 -0.61,-0.947 -3.09,-1.688 -3.09,-0.923 0,0.372 1.797,3.279 2.776,4.49 0.563,0.697 1.653,2.137 2.421,3.2 0.769,1.063 1.548,2.042 1.731,2.176 0.184,0.133 0.635,0.694 1.003,1.246 1.617,2.426 2.375,3.45 9.962,13.464 6.704,8.85 7.438,10.447 4.802,10.447 -1.149,0 -1.592,-0.364 -3.7,-3.038 -3.026,-3.838 -6.803,-8.575 -7.478,-9.377 -0.284,-0.338 -1.687,-2.104 -3.117,-3.924 -1.43,-1.82 -4.064,-5.071 -5.853,-7.224 -1.789,-2.152 -3.46,-4.301 -3.714,-4.775 -0.254,-0.474 -0.696,-0.862 -0.983,-0.862 -0.287,0 -0.727,-0.45 -0.977,-1 -0.251,-0.55 -0.64,-1 -0.864,-1 -0.663,0 -0.468,1.416 0.336,2.446 0.41,0.525 0.864,1.335 1.01,1.801 0.146,0.466 0.621,1.169 1.055,1.562 0.435,0.393 0.79,0.891 0.79,1.106 0,0.451 8.842,13.936 14.2,21.658 1.32,1.903 2.67,3.875 3,4.383 3.436,5.295 7.717,11.078 8.515,11.505 0.453,0.243 2.818,0.53 5.255,0.638 5.074,0.225 6.53,0.826 7.856,3.241 0.441,0.803 1.329,2.27 1.974,3.26 0.645,0.99 1.564,2.52 2.041,3.4 0.478,0.88 1.204,2.029 1.614,2.554 1.061,1.359 0.933,2.921 -0.355,4.332 -0.605,0.662 -1.993,2.174 -3.085,3.359 -1.092,1.185 -3.702,4.041 -5.8,6.346 -2.098,2.304 -6.397,6.984 -9.553,10.4 -14.079,15.235 -19.222,25.409 -15.944,31.538 5.307,9.922 16.652,5.885 27.482,-9.781 1.145,-1.656 3.734,-5.56 5.138,-7.748 2.412,-3.758 3.108,-4.882 5.435,-8.785 1.242,-2.082 2.514,-4.069 2.827,-4.415 0.313,-0.346 0.84,-1.253 1.17,-2.015 0.33,-0.762 1.207,-2.091 1.948,-2.954 l 1.349,-1.569 1.045,0.769 c 0.575,0.423 1.51,1.579 2.078,2.569 0.567,0.99 2.011,3.33 3.207,5.2 1.197,1.87 2.638,4.21 3.204,5.2 5.58,9.765 13.565,20.646 17.676,24.086 12.284,10.279 24.22,1.889 17.505,-12.306 -1.421,-3.006 -4.954,-8.709 -5.932,-9.58 -0.248,-0.22 -0.923,-1.03 -1.502,-1.8 -0.579,-0.77 -1.567,-1.94 -2.195,-2.6 -0.629,-0.66 -1.751,-1.92 -2.493,-2.8 -1.462,-1.734 -7.002,-7.842 -9.26,-10.209 -2.15,-2.255 -4.282,-4.566 -8.934,-9.689 -4.368,-4.81 -4.981,-6.011 -3.633,-7.129 0.348,-0.289 0.933,-1.096 1.3,-1.793 1.565,-2.975 4.654,-7.863 5.824,-9.216 l 1.263,-1.462 4.79,-0.316 c 6.446,-0.424 6.484,-0.445 9.64,-5.186 0.659,-0.99 2.257,-3.33 3.551,-5.2 1.867,-2.697 12.196,-18.111 13.999,-20.891 1.012,-1.559 3.621,-5.468 4.656,-6.974 0.629,-0.916 1.144,-1.833 1.144,-2.038 0,-0.205 0.36,-0.699 0.8,-1.097 0.773,-0.699 1.138,-3 0.477,-3 -0.43,0 -11.961,13.975 -18.477,22.395 -6.103,7.885 -7.136,8.888 -8.226,7.984 -1.422,-1.181 -0.214,-3.561 4.989,-9.828 0.57,-0.687 2.027,-2.644 3.237,-4.35 1.21,-1.706 3.1,-4.236 4.2,-5.621 1.1,-1.386 2.99,-3.894 4.2,-5.573 1.21,-1.679 2.954,-3.993 3.876,-5.142 2.266,-2.822 3.05,-5.065 1.773,-5.065 -0.428,0 -3.249,2.553 -3.249,2.94 0,0.175 -0.945,1.455 -2.1,2.844 -1.155,1.388 -3.63,4.448 -5.5,6.798 -1.87,2.35 -4.84,6.057 -6.6,8.237 -1.76,2.18 -4.367,5.415 -5.794,7.19 -2.321,2.887 -2.722,3.215 -3.8,3.109 -2.11,-0.207 -1.64,-1.572 2.491,-7.229 0.607,-0.831 1.822,-2.541 2.7,-3.8 0.879,-1.259 2.499,-3.499 3.6,-4.979 1.102,-1.479 2.453,-3.331 3.003,-4.116 0.55,-0.785 1.45,-2.036 2,-2.781 0.55,-0.745 1.63,-2.269 2.4,-3.387 1.618,-2.348 3.397,-4.797 4.029,-5.545 0.851,-1.008 1.505,-2.587 1.297,-3.131 -0.24,-0.624 -1.726,-0.759 -1.726,-0.157 0,0.216 -0.443,0.891 -0.984,1.5 -1.382,1.556 -2.73,3.243 -4.593,5.747 -0.883,1.188 -1.981,2.61 -2.439,3.16 -0.457,0.55 -1.891,2.44 -3.185,4.2 -1.295,1.76 -2.719,3.65 -3.165,4.2 -0.446,0.55 -1.881,2.44 -3.187,4.2 -1.306,1.76 -2.744,3.65 -3.194,4.2 -0.451,0.55 -1.296,1.589 -1.879,2.309 -3.739,4.617 -5.169,0.807 -1.495,-3.983 1.066,-1.389 2.294,-3.046 2.73,-3.682 0.845,-1.236 1.092,-1.578 4.791,-6.656 3.308,-4.541 4.485,-6.201 6.388,-9.013 0.902,-1.334 1.86,-2.684 2.128,-3 1.215,-1.435 3.284,-4.814 3.284,-5.365 0,-1.542 -1.77,-0.04 -6.8,5.77 -1.21,1.397 -3.1,3.551 -4.2,4.785 -5.788,6.498 -20.547,24.312 -21.497,25.947 -1.243,2.14 -1.337,3.499 -0.503,7.288 1.274,5.792 1.11,6.217 -4.814,12.463 -3.555,3.749 -3.827,3.781 -6.655,0.763 -7.039,-7.513 -6.906,-7.201 -5.486,-12.814 1.084,-4.289 0.885,-6.183 -0.891,-8.461 -4.575,-5.87 -22.825,-27.351 -27.354,-32.197 -0.66,-0.706 -1.92,-2.103 -2.8,-3.105 -1.889,-2.149 -2.2,-2.244 -2.2,-0.669 m 191.067,0.346 c -1.896,2.095 -0.491,5.65 2.016,5.1 1.493,-0.328 2.324,-1.972 1.922,-3.803 -0.432,-1.969 -2.665,-2.704 -3.938,-1.297 M 46,180.4 c -1.55,1.55 -0.829,4.065 1.308,4.562 1.349,0.313 3.092,-1.191 3.092,-2.668 0,-2.254 -2.824,-3.47 -4.4,-1.894 m 304.498,6.895 c -2.306,2.456 0.476,5.524 3.528,3.891 0.924,-0.495 1.088,-3.228 0.236,-3.935 -1.177,-0.976 -2.823,-0.957 -3.764,0.044 m -305.862,7.536 c -1.32,1.568 -1.301,2.001 0.153,3.557 1.722,1.843 4.411,0.715 4.411,-1.85 0,-2.555 -2.93,-3.65 -4.564,-1.707 m 306.347,6.788 c -0.46,0.508 -0.725,1.371 -0.699,2.278 0.098,3.458 4.916,3.422 4.916,-0.037 0,-2.727 -2.55,-4.083 -4.217,-2.241 m -306.36,7.67 c -1.72,2.455 0.417,5.288 3.012,3.992 1.65,-0.823 2.198,-3.429 0.918,-4.365 -1.149,-0.84 -3.218,-0.644 -3.93,0.373 m 305.623,7.297 c -0.888,1.354 -0.81,2.379 0.276,3.641 2.26,2.628 5.603,-0.835 3.449,-3.573 -1.095,-1.392 -2.837,-1.424 -3.725,-0.068 m -304.417,6.843 c -0.811,0.81 -0.811,3.132 0,3.942 1.521,1.522 4.571,0.311 4.571,-1.813 0,-2.375 -2.951,-3.749 -4.571,-2.129 m 67.953,1.953 c -1.303,1.302 -1.349,3.515 -0.093,4.395 0.774,0.542 3.311,0.623 19.586,0.623 20.999,0 19.525,0.224 19.525,-2.974 0,-3.138 0.731,-3.026 -19.818,-3.026 l -18.218,0 -0.982,0.982 M 247.4,224.853 c -2.004,1.118 -2.502,3.81 -0.911,4.924 1.085,0.76 37.342,0.956 38.737,0.209 0.948,-0.508 1.079,-3.416 0.207,-4.61 -0.682,-0.932 -36.418,-1.423 -38.033,-0.523 m 100.823,6.036 c -1.991,2.842 1.297,5.828 3.917,3.557 0.852,-0.739 0.71,-3.514 -0.21,-4.098 -1.063,-0.673 -3.061,-0.382 -3.707,0.541 M 115.2,232.262 c -0.77,0.073 -2.721,0.241 -4.336,0.373 -3.733,0.305 -5.418,3.41 -2.959,5.453 0.917,0.761 46.429,0.979 48.67,0.233 2.437,-0.812 2.909,-4.461 0.688,-5.32 -2.07,-0.8 -35.305,-1.384 -42.063,-0.739 m 129.8,0.164 c -4.791,0.482 -6.436,2.513 -4.235,5.23 l 0.765,0.944 24.335,0 c 26.396,0 25.842,0.047 26.338,-2.213 0.361,-1.643 -0.592,-3.022 -2.499,-3.616 -1.885,-0.587 -39.412,-0.877 -44.704,-0.345 M 48.396,238.1 c -0.998,1.635 -1.001,1.595 0.24,3.069 1.649,1.961 4.564,0.842 4.564,-1.751 0,-2.63 -3.431,-3.571 -4.804,-1.318 m 65.027,3.589 c -0.849,1.211 -0.783,3.224 0.142,4.367 l 0.764,0.944 18.616,0 c 13.616,0 18.74,-0.125 19.08,-0.465 0.677,-0.677 0.943,-3.874 0.406,-4.876 l -0.459,-0.859 -18.963,0 -18.964,0 -0.622,0.889 m 133.293,-0.466 c -1.934,1.127 -1.146,4.9 1.166,5.582 2.992,0.882 36.864,0.358 37.551,-0.581 0.662,-0.907 0.749,-3.536 0.153,-4.65 -0.472,-0.883 -37.386,-1.216 -38.87,-0.351 m 98.811,2.991 c -2.148,1.167 -1.975,4.244 0.28,4.988 3.109,1.027 5.044,-2.254 2.671,-4.527 -1.281,-1.228 -1.48,-1.259 -2.951,-0.461 m -292.214,6.839 c -2.227,1.098 -1.983,3.881 0.415,4.724 2.816,0.991 4.623,-2.278 2.399,-4.34 -1.309,-1.214 -1.17,-1.195 -2.814,-0.384 m 286.949,7.278 c -0.837,0.926 -0.856,3.018 -0.033,3.84 1.611,1.612 4.571,0.29 4.571,-2.041 0,-2.257 -3.034,-3.46 -4.538,-1.799 m -282.203,6.685 c -1.076,1.367 -1.083,2.192 -0.03,3.53 1.506,1.915 4.371,0.937 4.371,-1.492 0,-2.733 -2.771,-4.034 -4.341,-2.038 m 276.43,6.407 c -1.276,0.893 -1.222,3.066 0.097,3.931 1.328,0.87 2.294,0.813 3.598,-0.213 2.752,-2.165 -0.804,-5.743 -3.695,-3.718 M 64.874,277.434 C 62.87,278.837 63.927,282 66.4,282 c 1.825,0 2.4,-0.583 2.4,-2.431 0,-2.182 -2.173,-3.364 -3.926,-2.135 m 263.726,6.055 c -2.964,0.729 -2.453,4.911 0.6,4.911 1.831,0 2.4,-0.583 2.4,-2.457 0,-1.349 -1.133,-2.885 -1.989,-2.697 -0.116,0.026 -0.571,0.135 -1.011,0.243 m -256.1,6.107 c -2.186,1.333 -1.466,4.399 1.18,5.025 2.628,0.622 4.047,-2.97 1.889,-4.785 -1.474,-1.241 -1.434,-1.238 -3.069,-0.24 m 247.9,5.488 c -2.825,1.039 -2.709,5.316 0.144,5.316 2.67,0 3.863,-2.612 2.075,-4.542 -1.008,-1.088 -1.192,-1.152 -2.219,-0.774 M 81,300.878 c -3.43,1.945 -0.165,6.365 3.357,4.544 1.021,-0.528 1.243,-0.885 1.243,-2.003 0,-2.299 -2.547,-3.705 -4.6,-2.541 m 229.56,5.018 c -2.207,1.524 -1.473,5.704 1.001,5.704 3.221,0 3.605,-5.049 0.439,-5.778 -0.55,-0.126 -1.198,-0.093 -1.44,0.074 m -220.058,5.965 c -0.569,0.57 -0.876,1.23 -0.738,1.59 0.13,0.338 0.236,0.857 0.236,1.153 0,1.68 3.284,2.45 4.538,1.065 2.334,-2.58 -1.575,-6.268 -4.036,-3.808 m 209.28,5.121 c -1.289,1.289 -1.262,2.74 0.072,3.789 2.087,1.642 4.476,0.114 3.977,-2.544 -0.432,-2.307 -2.386,-2.908 -4.049,-1.245 m -198.022,3.724 c -1.523,1.017 -1.702,3.208 -0.379,4.636 2.641,2.85 6.064,-1.295 3.503,-4.242 -0.618,-0.712 -2.325,-0.927 -3.124,-0.394 m 186.45,5.674 c -0.806,1.56 -0.771,2.108 0.219,3.366 1.348,1.714 4.371,0.399 4.371,-1.901 0,-2.649 -3.414,-3.739 -4.59,-1.465 m -174.81,2.898 c -2.537,1.439 -1.366,5.522 1.584,5.522 0.799,0 2.075,-1.054 2.773,-2.288 1.021,-1.808 -2.397,-4.345 -4.357,-3.234 m 163.138,4.51 c -1.292,0.906 -1.432,2.554 -0.313,3.674 1.125,1.124 2.45,1.182 3.675,0.161 2.518,-2.101 -0.661,-5.726 -3.362,-3.835 m -151.509,3.641 c -0.86,0.859 -0.802,3.091 0.102,3.909 2.363,2.138 6.041,-0.889 4.304,-3.541 -0.779,-1.189 -3.37,-1.405 -4.406,-0.368 m 138.6,3.625 c -1.107,1.408 -1.045,2.384 0.229,3.565 2.451,2.272 6.104,-1.457 3.742,-3.819 -1.151,-1.151 -2.957,-1.036 -3.971,0.254 m -125.855,2.73 c -1.245,1.9 0.235,4.616 2.515,4.616 1.251,0 2.511,-1.368 2.511,-2.725 0,-2.621 -3.648,-3.994 -5.026,-1.891 m 113.626,2.105 c -2.911,0.716 -2.197,4.911 0.835,4.911 2.661,0 4,-3.444 1.785,-4.59 -1.227,-0.634 -1.305,-0.644 -2.62,-0.321 m -99.5,2.34 c -1.235,0.67 -1.589,3.267 -0.562,4.12 1.527,1.267 4.195,0.872 5.063,-0.75 1.316,-2.46 -1.833,-4.818 -4.501,-3.37 m 84.8,2.203 c -0.966,0.563 -0.946,3.221 0.031,4.106 1.686,1.525 4.869,0.258 4.869,-1.938 0,-2.074 -2.876,-3.347 -4.9,-2.168 m -71.342,1.851 c -1.702,1.836 -0.298,4.677 2.275,4.604 2.515,-0.072 3.615,-2.875 1.83,-4.66 -1.34,-1.34 -2.83,-1.32 -4.105,0.056 m 57.968,0.52 c -2.743,1.105 -1.807,5.597 1.166,5.597 3.107,0 4.202,-4.007 1.479,-5.415 -1.278,-0.661 -1.43,-0.672 -2.645,-0.182 m -43.166,1.368 c -2.922,1.272 -1.63,5.029 1.729,5.029 3.274,0 3.989,-3.429 1.031,-4.944 -1.498,-0.768 -1.212,-0.759 -2.76,-0.085 m 28.329,0.852 c -2.107,1.476 -0.222,5.396 2.294,4.768 3.473,-0.866 3.152,-5.391 -0.383,-5.391 -0.562,0 -1.422,0.28 -1.911,0.623 m -14.666,0.666 c -2.08,2.969 1.947,6.455 4.179,3.617 0.898,-1.141 0.875,-2.85 -0.053,-3.968 -0.75,-0.903 -3.406,-0.677 -4.126,0.351"
     id="path0" />
  <circle
     style="opacity:1;fill:none;fill-opacity:1;fill-rule:nonzero;stroke:#000000;stroke-width:15;stroke-miterlimit:4;stroke-dasharray:none;stroke-opacity:1"
     id="path3348"
     cx="199.59441"
     cy="202.91263"
     r="175.1409" />
</svg>
